<svg xmlns="http://www.w3.org/2000/svg" viewBox="0 0 440.33 439.6">
                <g id="drone">
                    <g id="wings">
                        <g>
                            <path class="propella"
                                d="M22.6,134c-6.6,0-19.93-2.64-21.87-7.7-.61-1.59,0-3.2,1.73-4.78C13.71,111.37,43.79,81.9,46.53,79.21c-.45-2.12-2.84-15.72,5.93-25.37,5.25-5.77,15.83-6.63,21.67-6.63,1.72,0,3,.07,3.47.11,2.19-2.5,25.21-28.61,38-36.06a11.88,11.88,0,0,1,5.76-1.11c7.79,0,19.3,3.52,21.11,7.47a2.61,2.61,0,0,1-.47,2.95c-17.9,20.83-41.77,44.56-44,46.76.13,1.78.64,12.57-5.16,19.92-7.43,9.4-16.4,10.8-21.09,10.8a21.22,21.22,0,0,1-3.88-.33c-2.73,3-28.78,31.81-41.39,35.8A13.47,13.47,0,0,1,22.6,134Z"
                                fill="#393" />
                            <path class="propella"
                                d="M121.34,10.65c9.26,0,24.08,5.15,20.26,9.59-18.9,22-44.13,46.9-44.13,46.9s1.12,12-5,19.8C85.25,96,76.68,97.55,71.74,97.55a19,19,0,0,1-4.06-.38s-28.31,31.74-41.36,35.88a13.22,13.22,0,0,1-3.72.41c-9.24,0-27.35-4.82-19.81-11.6,11.88-10.68,44.28-42.48,44.28-42.48s-3.66-14.84,5.76-25.2c5.15-5.67,15.7-6.47,21.3-6.47,2.24,0,3.68.13,3.68.13s24.59-28.31,38-36.14a11.49,11.49,0,0,1,5.51-1m0-1a12.25,12.25,0,0,0-6,1.18c-12.74,7.43-34.85,32.44-37.94,36-.62,0-1.76-.09-3.26-.09-5.92,0-16.66.88-22,6.79-8.73,9.61-6.7,22.65-6.11,25.55-3.74,3.66-32.83,32.15-43.85,42.06-2.41,2.16-2.34,4.09-1.87,5.33,2,5.27,15.62,8,22.34,8a13.81,13.81,0,0,0,4-.46C39.1,130.05,64.47,102.22,68,98.26a22.44,22.44,0,0,0,3.7.29c4.78,0,13.92-1.42,21.48-11,5.7-7.22,5.43-17.66,5.29-20,3-3,26.3-26.2,43.85-46.62a3.13,3.13,0,0,0,.55-3.49c-2.07-4.5-14.32-7.76-21.57-7.76Z"
                                fill="#363" />
                        </g>
                        <g>
                            <path class="propella"
                                d="M420.72,143.62a2.76,2.76,0,0,1-1.83-.76c-20.68-18.07-44.2-42.14-46.38-44.38-.31,0-.91,0-1.73,0-3.44,0-12.1-.53-18.14-5.38C340.06,83,342,70.21,342.38,68.09c-3-2.74-31.57-29.05-35.45-41.69-1.29-4.18.7-17.86,4.84-23.46C313,1.32,314.25.5,315.59.5a4.93,4.93,0,0,1,3.58,2c10,11.34,39.23,41.66,41.89,44.43a32.57,32.57,0,0,1,6.44-.6c5.28,0,12.85,1.17,18.89,6.75,7.52,7,6.5,22.89,6.3,25.19,2.49,2.22,28.39,25.45,35.73,38.29,2.54,4.45.16,17.2-3.48,23.47-1.38,2.39-2.8,3.6-4.22,3.6Z"
                                fill="#393" />
                            <path class="propella"
                                d="M315.59,1a4.43,4.43,0,0,1,3.21,1.82c10.58,12,42.1,44.64,42.1,44.64a31.54,31.54,0,0,1,6.6-.64c5.24,0,12.65,1.16,18.55,6.62,7.86,7.27,6.12,25,6.12,25S420.27,103.3,428,116.8c3.27,5.72-2.12,26.32-7.27,26.32a2.25,2.25,0,0,1-1.5-.63C397.39,123.41,372.71,98,372.71,98s-.73.06-1.93.06c-3.71,0-12-.58-17.83-5.27-13.59-10.92-10-24.85-10-24.85s-31.5-28.58-35.52-41.66C305.77,20.91,309.55,1,315.59,1m0-1h0c-1.51,0-2.93.89-4.22,2.64-4,5.44-6.4,19.1-4.92,23.9,3.85,12.52,31.47,38.15,35.39,41.73-.5,2.88-1.82,15.38,10.48,25.27,5.95,4.77,14.12,5.49,18.46,5.49.66,0,1.18,0,1.53,0,3,3.05,26,26.53,46.25,44.25a3.26,3.26,0,0,0,2.16.88c1.61,0,3.17-1.3,4.65-3.84,3.7-6.38,6.1-19.4,3.49-24-7.32-12.8-32.14-35.12-35.65-38.24.23-3.07,1-18.46-6.48-25.36-6.15-5.68-13.86-6.88-19.23-6.88a34.86,34.86,0,0,0-6.27.55c-3.62-3.76-31.87-33.1-41.68-44.21A5.42,5.42,0,0,0,315.6,0Z"
                                fill="#363" />
                        </g>
                        <g>
                            <path class="propella"
                                d="M126.16,439.1a2.76,2.76,0,0,1-1.83-.76C103.65,420.27,80.13,396.2,78,394c-.31,0-.91.05-1.73.05-3.44,0-12.1-.53-18.14-5.38C45.5,378.52,47.4,365.69,47.82,363.57c-3-2.74-31.57-29.05-35.45-41.7-1.29-4.17.7-17.85,4.84-23.45C18.41,296.8,19.69,296,21,296a4.93,4.93,0,0,1,3.58,2c10,11.34,39.23,41.66,41.89,44.43a32.57,32.57,0,0,1,6.44-.6c5.28,0,12.85,1.17,18.89,6.75,7.52,7,6.5,22.89,6.3,25.19,2.49,2.21,28.39,25.45,35.73,38.29,2.55,4.45.16,17.2-3.48,23.47-1.38,2.39-2.8,3.6-4.22,3.6Z"
                                fill="#393" />
                            <path class="propella"
                                d="M21,296.48a4.43,4.43,0,0,1,3.21,1.82c10.58,12,42.1,44.64,42.1,44.64a31.54,31.54,0,0,1,6.6-.64c5.24,0,12.65,1.16,18.55,6.62,7.86,7.27,6.12,25,6.12,25s28.1,24.83,35.82,38.33c3.27,5.72-2.12,26.32-7.27,26.32a2.25,2.25,0,0,1-1.5-.63c-21.83-19.08-46.51-44.52-46.51-44.52s-.73.06-1.93.06c-3.71,0-12-.58-17.83-5.27-13.59-10.92-10-24.85-10-24.85s-31.5-28.58-35.52-41.66C11.21,316.39,15,296.48,21,296.48m0-1h0c-1.51,0-2.93.89-4.22,2.64-4,5.44-6.4,19.1-4.92,23.9,3.85,12.52,31.47,38.15,35.39,41.73-.5,2.88-1.82,15.38,10.48,25.27,6,4.77,14.12,5.49,18.46,5.49.66,0,1.18,0,1.53,0,3,3,26,26.53,46.25,44.25a3.26,3.26,0,0,0,2.16.88c1.61,0,3.17-1.3,4.65-3.84,3.7-6.38,6.1-19.4,3.49-24C127,399,102.16,376.66,98.65,373.54c.23-3.07,1-18.46-6.48-25.36C86,342.5,78.31,341.3,72.94,341.3a34.86,34.86,0,0,0-6.27.55c-3.62-3.76-31.87-33.1-41.68-44.21A5.42,5.42,0,0,0,21,295.48Z"
                                fill="#363" />
                        </g>
                        <g>
                            <path class="propella"
                                d="M319.72,427.64c-6.6,0-19.93-2.64-21.87-7.7-.61-1.59,0-3.2,1.73-4.78,11.25-10.11,41.33-39.58,44.07-42.27-.45-2.12-2.84-15.72,5.93-25.37,5.25-5.77,15.83-6.63,21.67-6.63,1.72,0,3,.07,3.47.11,2.19-2.5,25.21-28.61,38-36.06a11.9,11.9,0,0,1,5.76-1.11c7.79,0,19.3,3.52,21.11,7.47a2.61,2.61,0,0,1-.47,2.95c-17.9,20.83-41.77,44.55-44,46.76.13,1.78.64,12.57-5.16,19.92-7.43,9.4-16.4,10.8-21.09,10.81a20.71,20.71,0,0,1-3.88-.34c-2.73,3-28.78,31.81-41.39,35.8A13.47,13.47,0,0,1,319.72,427.64Z"
                                fill="#393" />
                            <path class="propella"
                                d="M418.46,304.33c9.26,0,24.08,5.15,20.26,9.59-18.9,22-44.13,46.9-44.13,46.9s1.12,12-5,19.8c-7.18,9.09-15.75,10.61-20.69,10.61a19,19,0,0,1-4.06-.38s-28.31,31.74-41.36,35.88a13.22,13.22,0,0,1-3.72.41c-9.24,0-27.35-4.82-19.81-11.6,11.88-10.68,44.28-42.48,44.28-42.48s-3.66-14.84,5.76-25.2c5.15-5.67,15.7-6.47,21.3-6.47,2.24,0,3.68.13,3.68.13s24.59-28.31,38-36.14a11.49,11.49,0,0,1,5.51-1.05m0-1a12.25,12.25,0,0,0-6,1.18c-12.74,7.43-34.85,32.44-37.94,36-.62,0-1.76-.09-3.26-.09-5.92,0-16.66.88-22,6.79-8.73,9.61-6.7,22.65-6.11,25.55-3.74,3.66-32.83,32.15-43.85,42.06-2.41,2.16-2.34,4.09-1.87,5.33,2,5.27,15.62,8,22.34,8a13.81,13.81,0,0,0,4-.46c12.48-3.95,37.85-31.78,41.42-35.74a22.44,22.44,0,0,0,3.7.29c4.78,0,13.92-1.42,21.48-11,5.7-7.22,5.43-17.66,5.29-20,3-3,26.3-26.2,43.85-46.62a3.13,3.13,0,0,0,.55-3.49c-2.07-4.5-14.32-7.76-21.57-7.76Z"
                                fill="#363" />
                        </g>
                    </g>
                    <g id="drone-body">
                        <path
                            d="M113.39,345.69a1.32,1.32,0,0,1-1.43-1c-1.59-7.84-17.29-16.94-17.45-17l-.05,0,0,0a2.31,2.31,0,0,1-.06-3.2l39.48-41.68a.76.76,0,0,0,.09-.16,1.76,1.76,0,0,1,.28-.41c19.44-19.84,22.27-54.94,22.29-55.29v-.08l0-.07a1.33,1.33,0,0,0,0-.88l-.05-.13,0-.13c.08-.33,7-33.4-22.37-68.06a1.89,1.89,0,0,1-.26-.43,1.28,1.28,0,0,0-.11-.21L94.29,114.07a2.66,2.66,0,0,1-.64-2.27,1.37,1.37,0,0,1,.87-1c9.69-3.36,16.72-17.31,16.79-17.45l0-.07,0-.06a2.3,2.3,0,0,1,3.18-.1l54.2,49.32a1,1,0,0,0,.26.14,2.07,2.07,0,0,1,.44.23c18.21,13,45.67,13.68,51,13.68h1.08l.07,0h.14a2.09,2.09,0,0,0,.34,0l.47,0c37.69-.86,55.49-20.9,55.66-21.1l.08-.1.12,0a1.33,1.33,0,0,0,.41-.25l46-41.83a2.78,2.78,0,0,1,1.79-.68,1.44,1.44,0,0,1,1.48.95c3.37,10.35,16.65,16.69,16.78,16.75l.08,0,.07.06a2.28,2.28,0,0,1,.08,3.13c-.38.42-37.82,41-46.32,51.69a1.48,1.48,0,0,0-.31.55v.05l0,0c-13.8,25.7-14.62,35.6-15.28,57.47a4,4,0,0,0,0,.6c0,.16,0,.33,0,.5,1.19,35.91,23.78,58.7,24,58.93l.07.07,0,.1a1.19,1.19,0,0,0,.25.38L345.09,324a2.71,2.71,0,0,1,.64,2.4,1.23,1.23,0,0,1-.91.88c-8.24,1.95-16.64,17.27-16.72,17.42l0,.06-.05.05a2.26,2.26,0,0,1-1.64.7,2.23,2.23,0,0,1-1.57-.63l-46.67-44.23-.2-.11a1.54,1.54,0,0,1-.46-.28c-16.94-15.77-53.47-17.9-53.84-17.92h-.06l-.07,0a1.12,1.12,0,0,0-.4-.07,1.34,1.34,0,0,0-.4.06l-.09,0h-.1s-1.28-.09-3.46-.09c-10.28,0-36.57,2-58.6,20.2a2.23,2.23,0,0,1-.43.25.64.64,0,0,0-.22.13L115.26,345A2.91,2.91,0,0,1,113.39,345.69Z"
                            fill="#393" />
                        <path
                            d="M326.63,92.93a1,1,0,0,1,1,.61c3.47,10.68,17,17,17,17a1.78,1.78,0,0,1,.07,2.45S307,153.9,298.4,164.74a2.06,2.06,0,0,0-.39.73c-13.7,25.51-14.65,35.09-15.34,57.69,0,.39.06.74.07,1.13,1.21,36.53,24.16,59.26,24.16,59.26a1.77,1.77,0,0,0,.34.54l37.49,40.29c.64.69.89,2.23,0,2.45-8.55,2-17,17.67-17,17.67a1.76,1.76,0,0,1-1.28.55,1.78,1.78,0,0,1-1.23-.49l-46.67-44.23c-.19-.18-.47-.22-.66-.4-17.27-16.07-54.15-18.05-54.15-18.05a1.77,1.77,0,0,0-.56-.09,1.71,1.71,0,0,0-.55.09s-1.27-.1-3.5-.1c-9.49,0-36.51,1.76-58.92,20.31-.21.17-.49.22-.68.4L114.92,344.6a2.41,2.41,0,0,1-1.53.59.85.85,0,0,1-.94-.62c-1.66-8.15-17.69-17.37-17.69-17.37a1.77,1.77,0,0,1,0-2.49L134.19,283c.16-.16.21-.4.36-.56,19.8-20.2,22.44-55.6,22.44-55.6a1.77,1.77,0,0,0,0-1.22s7.4-33.22-22.48-68.5c-.17-.19-.21-.46-.39-.65l-39.5-42.76c-.65-.69-.87-2.14,0-2.44,10-3.47,17.07-17.71,17.07-17.71A1.79,1.79,0,0,1,113,93a1.77,1.77,0,0,1,1.19.46l54.2,49.32c.21.2.51.24.75.41C187.47,156.31,214.87,157,220.46,157h1l.27,0c.27,0,.54-.08.82-.09,38.34-.87,56-21.27,56-21.27a1.71,1.71,0,0,0,.56-.35l46-41.83a2.25,2.25,0,0,1,1.45-.55m0-1a3.27,3.27,0,0,0-2.12.81l-46,41.83a.7.7,0,0,1-.25.15l-.23.09-.17.19c-.17.2-17.89,20.08-55.29,20.93-.21,0-.39,0-.54.06l-.26,0-.14,0h-1.15c-5.29,0-32.62-.66-50.7-13.59a3.09,3.09,0,0,0-.53-.28l-.15-.07-54.17-49.3a2.8,2.8,0,0,0-3.88.13l-.1.11-.07.14c-.07.13-7,13.91-16.51,17.2a1.86,1.86,0,0,0-1.19,1.33,3.15,3.15,0,0,0,.76,2.74l39.51,42.76s0,0,0,.08a2.34,2.34,0,0,0,.32.54c15.26,18,20.5,35.43,22.21,46.87,1.86,12.41.08,20.68.07,20.76l-.06.27.08.26a.75.75,0,0,1,0,.53l-.05.15,0,.15c0,.36-2.84,35.28-22.15,55a1.91,1.91,0,0,0-.36.53.25.25,0,0,1,0,.07L94,324a2.8,2.8,0,0,0,.07,3.89l.09.09.11.07c.16.09,15.66,9.08,17.21,16.7a1.81,1.81,0,0,0,1.92,1.42,3.39,3.39,0,0,0,2.22-.87l44.54-42.1.09,0a2.48,2.48,0,0,0,.53-.32c21.91-18.13,48.06-20.08,58.29-20.08,2.16,0,3.41.09,3.42.09l.2,0,.19-.06a.61.61,0,0,1,.24,0,.67.67,0,0,1,.24,0l.13,0h.14c.36,0,36.72,2.14,53.52,17.78a2,2,0,0,0,.59.37l.09.05,46.64,44.21a2.78,2.78,0,0,0,1.92.76,2.75,2.75,0,0,0,2-.85l.09-.1.07-.12c.08-.15,8.38-15.28,16.39-17.18a1.72,1.72,0,0,0,1.28-1.22,3.21,3.21,0,0,0-.75-2.88L308,283.41a.87.87,0,0,1-.16-.23l-.07-.19-.15-.15c-.22-.22-22.67-22.9-23.86-58.58,0-.19,0-.37,0-.54a3.39,3.39,0,0,1,0-.53c.69-22.76,1.62-31.92,15.22-57.25l.06-.1,0-.11a.84.84,0,0,1,.21-.37c8.49-10.69,45.92-51.24,46.29-51.65a2.78,2.78,0,0,0-.09-3.83l-.12-.13-.16-.07c-.13-.06-13.22-6.32-16.52-16.45a1.94,1.94,0,0,0-2-1.3Z"
                            fill="#363" />
                    </g>
                    <g id="text">
                        <path
                            d="M203.61,202.88c-3.08.33-4.09.81-4.23,3,0,1.54-.14,3.55-.14,8v19.25h-1.83l-20.54-25.11v12c0,4.32.14,6.48.24,7.87.09,2.45,1.29,3.17,4.75,3.46v1.35H170.19v-1.35c3-.24,4.13-1,4.32-3.31.15-1.54.24-3.7.24-8.07V207.77a4.17,4.17,0,0,0-1-3.17c-.91-1.2-1.92-1.48-4.27-1.72v-1.35h7.2l20.36,24.15V213.92c0-4.47-.1-6.53-.24-8-.15-2.16-1.25-2.83-5.09-3.07v-1.35h11.86Z"
                            fill="#fff" />
                        <path
                            d="M238.64,219.63c-3,.38-3.16.67-3.16,3.5v4a26.42,26.42,0,0,0,.28,4.56,48.94,48.94,0,0,1-10.89,1.72c-10.9,0-17.52-6.76-17.52-16.41,0-10.13,8.25-16.18,17.85-16.18a49.18,49.18,0,0,1,10,1.2c.09,1.78.33,4.7.72,7.73l-1.44.29c-1.15-4.08-2.55-5.81-5.57-6.82a16.29,16.29,0,0,0-4.46-.62c-7.35,0-12.1,5-12.1,13.82,0,7.63,3.93,15.22,13.25,15.22a9.6,9.6,0,0,0,4.08-.82c1-.57,1.63-1.1,1.63-3.07v-3.94c0-3.5-.38-3.88-5-4.22v-1.39h12.33Z"
                            fill="#fff" />
                        <path
                            d="M267.11,209.07a18.1,18.1,0,0,0-1.54-4c-.77-1.29-1.25-1.63-3.89-1.63h-4.8v23.38c0,3.74.39,4.27,4.95,4.56v1.35h-14v-1.35c4.46-.29,4.85-.77,4.85-4.56V203.45h-4.37c-2.64,0-3.41.29-4.23,1.73a22,22,0,0,0-1.58,3.89h-1.44c.29-2.93.58-5.95.72-8.64h1.1c.72,1.15,1.25,1.1,2.6,1.1h19a2.4,2.4,0,0,0,2.44-1.1h1.16c0,2.25.19,5.71.43,8.49Z"
                            fill="#fff" />
                    </g>
                </g>
        </svg>